<?xml version="1.0" encoding="utf-8"?>
<!-- Generator: Adobe Illustrator 27.3.1, SVG Export Plug-In . SVG Version: 6.00 Build 0)  -->
<svg version="1.1" id="Capa_1" xmlns="http://www.w3.org/2000/svg" xmlns:xlink="http://www.w3.org/1999/xlink" x="0px" y="0px"
	 viewBox="0 0 1000 1000" style="enable-background:new 0 0 1000 1000;" xml:space="preserve" width="128" height="128">
<style type="text/css">
	.st0{fill-rule:evenodd;clip-rule:evenodd;fill:#C79687;stroke:#C79687;stroke-width:3.600000e-02;stroke-miterlimit:10;}
	.st1{fill-rule:evenodd;clip-rule:evenodd;fill:#E1CDCC;}
	.st2{fill-rule:evenodd;clip-rule:evenodd;fill:#A37157;}
	.st3{fill-rule:evenodd;clip-rule:evenodd;fill:#B57D61;}
	.st4{fill-rule:evenodd;clip-rule:evenodd;fill:#212121;}
	.st5{fill:#EA9C47;stroke:#000000;stroke-width:14.9236;stroke-miterlimit:10;}
	.st6{fill:#EA9C47;}
	.st7{display:none;fill:#EA9C47;}
	.st8{fill:#EFC092;}
	.st9{fill:#CE8741;}
	.st10{fill:none;stroke:#000000;stroke-width:1.6582;stroke-miterlimit:10;}
	.st11{fill:#5CA6BF;}
	.st12{fill:#61BFD8;}
	.st13{fill:#F2D6B6;}
</style>
<g>
	<path class="st0" d="M136.2,492.3c3.9,4.9,12,14.9,24.6,30.2c12.9,15.4,35.2,41.9,50.6,61.6c15.2,19.4,23.5,32.1,40.4,55
		c17.2,22.9,42.1,58.5,60.6,81.5c18.6,22.7,34.9,38.6,49.1,54.5c14.3,15.9,25.8,29,35.6,40.1c6.1-0.5,10.4,0.7,13.3,3.4
		c3,2.8,4.2,8.3,3.8,12.7c-0.5,4.3-3.3,10.3-6.8,12.8c-3.4,2.3-9.9,2.3-13.7,1.2c-3.6-1.3-7-5.4-8.4-8.5c-1.4-3.1-1.5-6.3-0.2-9.8
		c-17-18.7-33.1-36.1-49.5-53.1c-16.2-17.1-30.8-32.8-47.6-48.3c-16.7-15.6-23.2-18.3-52.1-44.4C206.8,655.1,150.1,603,115.1,570
		c-34.9-33.1-69.6-65.6-86.9-85c-16.9-19.3-15-20-14.9-30.1c0.1-10.5,9-24.1,15.4-31c6.6-6.8,16.3-8.5,23.6-9.2
		c7.4-0.8,13.9,0.8,20.3,4.8c6.6,3.9,11.4,10.5,18.4,18.4c7.1,7.8,16.2,18.8,23.8,28.1C122.3,475,129.4,483.8,136.2,492.3
		L136.2,492.3z"/>
	<path class="st1" d="M64.8,444.5c1.9-4-0.1-14.1-1.7-14.9c-1.5-0.8-5.4,6.3-7.3,10.3c-1.8,3.8-5.1,11.9-3.7,12.8
		C53.8,453.4,63,448.4,64.8,444.5L64.8,444.5z M42,421.8c-2.2,0.5-13.5,9.1-16.6,13c-2.8,3.8-2.4,9.7-0.5,9.3
		c2.1-0.5,9.8-8.8,12.6-12.4C40.4,427.8,44.1,421.4,42,421.8z M176.8,561.5c13.3,14.3,34.9,35.5,37.3,36.6c2.3,0.7-6.6-10.4-23-31
		c-16.4-20.8-57.4-70.4-74.9-91.7c-17.3-21.3-22.6-30.4-28.7-34.9c-6.1-4.4-15-3.4-7.3,8.7c8.1,12.1,38.6,44.1,54.8,63.1
		C151.3,531.1,163.5,547.1,176.8,561.5L176.8,561.5z"/>
	<path class="st2" d="M388,829.1c-1.5-1.3-2.3-1.3-2.4,0.2c0,1.5,0,6.1,1.7,8.7c1.8,2.6,5.4,5.7,8.5,6.5c3.6,0.4,8.5-0.4,11.3-3
		c2.8-2.6,4.9-8.4,5.1-12c0.1-3.7-1.6-7.6-3.8-9.6c-2-2.1-4.6-2.6-8.1-2.1c1.9,0.5,3.4,1.6,4.6,3.5c1.3,1.9,2.6,4.8,2.3,7.7
		c-0.3,2.7-2.1,6.7-4.1,8.4c-2,1.4-5.1,1.5-7.6,0.8c-2.4-0.8-5.5-3.9-6.9-5.3C387.4,831.2,387.2,830.1,388,829.1L388,829.1z"/>
	<path class="st3" d="M64.1,480c6.2,6.4,25,21,36.8,30.7c12.1,9.6,31.6,28.6,34,26.3c2.2-2.6-11.6-28.1-20.8-41
		c-9.2-13-25.1-28.5-33.6-35.7c-8.1-7.2-12.5-7.1-15.8-7.2c-3.3-0.3-4.8,5.5-3.9,6.1c1,0.5,2.5-7.6,9.7-2.6
		c7.3,5,24.7,21.4,33.6,32.5c9,11.1,21.8,32.2,19.6,33.6c-2.1,1.1-22.6-17.6-32.5-26c-9.9-8.5-21.5-21.6-26.3-24.4
		C60.4,469.7,58.1,473.5,64.1,480z"/>
	<path class="st3" d="M102.1,522.8c-5.7-4-19-13.6-12.7-6.8c6.5,6.7,37.4,35.5,50.6,47.1c13.4,11.5,24.7,23.5,28.6,21.5
		c3.7-2.3-0.1-22-5.9-34.9c-5.8-12.9-20.1-32.6-28-42.1c-7.8-9.6-19.4-18.5-18.2-14.9c1.6,3.6,18.9,22.8,26.7,36.7
		c7.7,13.8,22.5,43.8,19.2,45.7c-3.3,1.5-28.5-26.6-38.7-35.4C113.7,530.9,107.9,526.7,102.1,522.8L102.1,522.8z M176.6,602.3
		c0.3-1.6,21.7,15.8,24.5,14.5c2.8-1.5-3.2-12-7.6-22.3c-4.4-10.5-20.3-42.7-17.8-39.1c3,4,30.1,49.6,34.3,61.7
		c4.1,11.6-4,11.4-9.7,8.9C194.6,623.4,176.7,603.8,176.6,602.3L176.6,602.3z"/>
	<path class="st3" d="M236.6,654.5c-2.5,2-8.3-3.1-16.5-9c-8.4-6.2-21.4-16.4-32.9-26.1c-11.4-9.7-25.2-22.8-34.5-30.8
		c-9-8-26.4-23.2-19.7-16.4c7.2,6.9,44.7,42.5,61.1,56.8c16.4,14.2,27.9,23.3,36.4,27.8c8.6,4.1,13.7,1.3,14.4-2.6
		c0.8-4.1-8.4-21.4-9.8-21.3C233.7,633.1,239.1,652.2,236.6,654.5z M244.1,672.6c9.9,4.3,15.5,4.9,17.1,2c1.6-3.1-0.8-9.6-7.4-19.9
		c7.2,11.6,11,19.1,11.3,23.3c0.3,3.9-5.7,2.1-9.3,1.1C252.2,678,248.5,676,244.1,672.6L244.1,672.6z"/>
	<path class="st3" d="M279,698.4c3.1-0.8-7.9-17.8-8.5-20.2c-0.4-2.4,2.9,1.4,5.6,5.7c2.7,4.3,11.7,17.9,10.2,19.9
		c-1.4,1.6-13-5.6-18.8-9.1c-5.7-3.6-17.3-12.4-15.4-11.8C254.1,683.5,275.8,698.9,279,698.4z M272.3,701.7
		c1.3,1.3,13.5,12.2,19.3,16.7c5.8,4.2,13.2,9.1,15.3,9c2.1-0.3-0.6-6.7-2.8-10.1c-2.1-3.6-9-10.5-9.9-10.4
		c-0.8,0.1,6.6,10.3,5,11.1c-1.6,0.5-10.1-4.6-14.6-7.3C280,707.9,271.2,700.5,272.3,701.7z M392.3,827.8c4.1,3.6,8.2,7.1-0.2-2.4
		c-8.4-9.7-34.9-39.3-49.8-54.7c-14.7-15.7-29.1-29.2-38.5-37.7c-9.3-8.5-19.8-15.8-17.5-12.7c2.6,3,18.3,16.6,32.1,30.6
		c14,14.1,37.5,39.7,50,52.8C380.9,816.5,388.3,824.1,392.3,827.8L392.3,827.8z M389.7,819.7c-0.4-1.1-8.1-12.9-14.5-19.8
		c-6.3-7-23.6-21.3-23.3-20.5c0.4,1,19.2,19.3,25.4,26.1C383.8,812.3,390,820.5,389.7,819.7L389.7,819.7z M335.2,752.4
		c-5.3-5.4-19.6-12.8-19.6-12.1c0,0.9,14.3,11.4,19.6,16.8c5.5,5.2,12.8,15,12.8,14.2C348.1,770.5,340.7,757.5,335.2,752.4z"/>
	<path class="st4" d="M259.2,701.9c3.1,2,6.3,2.6,10,2.2c3.7-0.6,9-2.5,11.9-5.2c3.1-2.8,5.1-6.3,6.3-10.9l-17.1-23.6
		c0.3,4.8-0.2,8.7-1.2,12.3c-0.9,3.5-2.5,6.2-4.9,8.5c-2.5,2.1-6.7,3.9-10.1,4.5c-3.5,0.5-6.7,0.1-10.3-1.1
		C249,693,254.1,697.5,259.2,701.9z"/>
	<path class="st3" d="M45.1,485c-13.4-16.3-9.5-13-10.6-19.6c-1-6.9,3.8-21.7,3.6-20.2c-0.1,1.7-8.9,18.9-4.6,30.2
		c4.6,11.2,17.2,22.2,30.9,36.9c13.8,14.7,53.7,54.6,50.6,50.3C111.7,557.7,58.8,501.4,45.1,485z"/>
	<path class="st3" d="M56.1,491c0.3-0.1-11.9-17.5-14.2-24c-2-6.6,2.3-14.7,1.8-14.8c-0.3-0.1-6.2,8.1-4.1,14.6
		C41.8,473.2,55.8,490.8,56.1,491L56.1,491z"/>
</g>
<g>
	<path class="st5" d="M432.2,344.8c0,0,20.3,6,15.5,27.4c-4.8,21.5-4.8,36.9-2.4,46.5c2.4,9.5,3.6,41.7,0,58.4s8.3,75.1,8.3,94.1
		c0,19.1,0,52.4-1.2,63.2c-1.2,10.7-3.6,28.6-1.2,32.2c0,0-22,16.1-29.8,16.7c-7.1,0.5-23.8,9.5-35.8,10.7
		c-11.9,1.2-47.1,12.5-50.6,22c-3.6,9.5-6,13.1,1.2,16.7c7.2,3.6,20.3,0,22.6,2.4c2.4,2.4,13.1,3.6,19.1-1.2s31-14.3,44.1-14.3
		s15.5-10.7,26.2-9.5s3.6,47.7-19.1,52.4c-14.3,7.2-23.8,3.6-31,7.2c-7.2,3.6-20.3,6-25,7.2c-4.8,1.2-11.9,6-15.5,6
		s-15.5,1.2-19.1,4.8s-10.7,11.9-9.5,17.9c1.2,6,6,19.1,14.3,23.8c8.3,4.7,2.4,11.9,6,14.3c3.6,2.4,9.5,8.3,16.7,9.5
		c7.2,1.2,41.7,4.8,54.8-8.3c13.1-13.1,52.4-50.1,62-65.5c9.5-15.5,27.4-4.8,39.3-1.2c11.9,3.6,26.2,1.2,40.5-1.2s29.8,8.3,50.1,4.8
		c20.3-3.6,23.8,7.1,23.8,7.1s1.2,23.8,3.6,32.2c2.4,8.3-8.3,19.1-8.3,28.6s6,31-4.8,48.9c-10.7,17.9-21.5,27.4-20.3,36.9s6,6,6,6
		s0,7.2,13.1,6c0,0,3.6,2.4,9.5,2.4c6,0,14.3-4.8,14.3-4.8s3.6,4.8,9.5,0c6-4.8,14.3-11.9,23.8-13.1c9.5-1.2,6-34.6,9.5-40.5
		c3.6-6,2.4-20.3,9.5-28.6s-9.5-19.1-4.8-44.1c4.8-25,14.3-41.7,28.6-46.5s64.4-33.4,71.5-38.1c7.2-4.8,51.2-35.8,57.2-44.1
		s97.7-100.1,50.1-191.9S880.9,393,830.8,340.6c0,0-35.6-32.8-54.8-45.3c-20.3-13.1-34.8-38.4-38.1-47.7c-4.8-13.1-8.3-17.9-14.3-25
		s-2.4-6-10.7-19.1c-6.8-10.7-9.5-16.7-19.1-26.2c-8.3-8.3-23.8-27.4-42.9-27.4s-44.1-6-72.7-8.3c-27.3-2.3-31-4.8-51.2-4.8
		c-20.2,0-20.3,0-20.3,0s-14.3-14.3-29.8-9.5c-15.5,4.8-11.9,27.4-11.9,27.4s-33.4,27.4-40.5,54.8s-1.2,48.9-9.5,57.2
		s-41.7,32.2-36.9,47.7C382.8,329.9,398.3,347.7,432.2,344.8z"/>
	<path class="st6" d="M432.2,344.8c0,0,20.3,6,15.5,27.4c-4.8,21.5-4.8,36.9-2.4,46.5c2.4,9.5,3.6,41.7,0,58.4s8.3,75.1,8.3,94.1
		c0,19.1,0,52.4-1.2,63.2c-1.2,10.7-3.6,28.6-1.2,32.2c0,0-22,16.1-29.8,16.7c-7.1,0.5-23.8,9.5-35.8,10.7
		c-11.9,1.2-47.1,12.5-50.6,22c-3.6,9.5-6,13.1,1.2,16.7c7.2,3.6,20.3,0,22.6,2.4c2.4,2.4,13.1,3.6,19.1-1.2s31-14.3,44.1-14.3
		s15.5-10.7,26.2-9.5s3.6,47.7-19.1,52.4c-14.3,7.2-23.8,3.6-31,7.2c-7.2,3.6-20.3,6-25,7.2c-4.8,1.2-11.9,6-15.5,6
		s-15.5,1.2-19.1,4.8s-10.7,11.9-9.5,17.9c1.2,6,6,19.1,14.3,23.8c8.3,4.7,2.4,11.9,6,14.3c3.6,2.4,9.5,8.3,16.7,9.5
		c7.2,1.2,41.7,4.8,54.8-8.3c13.1-13.1,52.4-50.1,62-65.5c9.5-15.5,27.4-4.8,39.3-1.2c11.9,3.6,26.2,1.2,40.5-1.2s29.8,8.3,50.1,4.8
		c20.3-3.6,23.8,7.1,23.8,7.1s1.2,23.8,3.6,32.2c2.4,8.3-8.3,19.1-8.3,28.6s6,31-4.8,48.9c-10.7,17.9-21.5,27.4-20.3,36.9s6,6,6,6
		s0,7.2,13.1,6c0,0,3.6,2.4,9.5,2.4c6,0,14.3-4.8,14.3-4.8s3.6,4.8,9.5,0c6-4.8,14.3-11.9,23.8-13.1c9.5-1.2,6-34.6,9.5-40.5
		c3.6-6,2.4-20.3,9.5-28.6s-9.5-19.1-4.8-44.1c4.8-25,14.3-41.7,28.6-46.5s64.4-33.4,71.5-38.1c7.2-4.8,51.2-35.8,57.2-44.1
		s97.7-100.1,50.1-191.9S880.9,393,830.8,340.6c0,0-35.6-32.8-54.8-45.3c-20.3-13.1-34.8-38.4-38.1-47.7c-4.8-13.1-8.3-17.9-14.3-25
		s-2.4-6-10.7-19.1c-6.8-10.7-9.5-16.7-19.1-26.2c-8.3-8.3-23.8-27.4-42.9-27.4s-44.1-6-72.7-8.3c-27.3-2.3-31-4.8-51.2-4.8
		c-20.2,0-20.3,0-20.3,0s-14.3-14.3-29.8-9.5c-15.5,4.8-11.9,27.4-11.9,27.4s-33.4,27.4-40.5,54.8s-1.2,48.9-9.5,57.2
		s-41.7,32.2-36.9,47.7C382.8,329.9,398.3,347.7,432.2,344.8z"/>
	<g>
		<path class="st7" d="M491.2,760c-1.2-23.8,7.1-146.6,16.7-154.9c9.5-8.3,17.9-13.1-3.6-32.2c-21.5-19.1-10.7-45.3-38.1-17.9
			c-5.2,5.2-9.2,10.3-12.5,15c0,0.4,0,0.8,0,1.1c0,19.1,0,52.4-1.2,63.2c-1.2,10.7-3.6,28.6-1.2,32.2c0,0-22,16.1-29.8,16.7
			c-7.1,0.5-23.8,9.5-35.8,10.7c-11.9,1.2-47.1,12.5-50.6,22c-3.6,9.5-6,13.1,1.2,16.7c7.2,3.6,20.3,0,22.6,2.4
			c2.4,2.4,13.1,3.6,19.1-1.2c6-4.8,31-14.3,44.1-14.3s15.5-10.7,26.2-9.5s3.6,47.7-19.1,52.4c-14.3,7.2-23.8,3.6-31,7.2
			c-7.2,3.6-20.3,6-25,7.2c-4.8,1.2-11.9,6-15.5,6s-15.5,1.2-19.1,4.8s-10.7,11.9-9.5,17.9c1.2,6,6,19.1,14.3,23.8
			c8.3,4.7,2.4,11.9,6,14.3c3.6,2.4,9.5,8.3,16.7,9.5c7.2,1.2,41.7,4.8,54.8-8.3c13.1-13.1,52.4-50.1,62-65.5
			c1.8-2.9,3.9-4.9,6.2-6.2C490.6,768.7,491.4,764.4,491.2,760z"/>
		<path class="st7" d="M904.7,497.9C857,406.1,880.9,393,830.8,340.6c0,0-35.6-32.8-54.8-45.3c-20.3-13.1-34.8-38.4-38.1-47.7
			c-4.8-13.1-8.3-17.9-14.3-25s-2.4-6-10.7-19.1c-6.8-10.7-9.5-16.7-19.1-26.2c-8.3-8.3-23.8-27.4-42.9-27.4s-44.1-6-72.7-8.3
			c-27.3-2.3-31-4.8-51.2-4.8c-20.2,0-20.3,0-20.3,0s-14.3-14.3-29.8-9.5c-15.5,4.8-11.9,27.4-11.9,27.4s-33.4,27.4-40.5,54.8
			s-1.2,48.9-9.5,57.2s-41.7,32.2-36.9,47.7c1,3.3,2.5,6.7,4.6,10c33.3-13.7,77-32.4,88.4-41c19.1-14.3,73.9-69.1,97.7-36.9
			c23.8,32.2,47.7,20.3,42.9,59.6c-4.8,39.3-34.6,42.9-38.1,64.4c-3.6,21.5-23.8,38.1-3.6,56c20.3,17.9,66.7-1.2,83.4,4.8
			s-17.9,31-6,51.2c11.9,20.3,71.5-17.9,73.9,3.6c2.4,21.5,3.6,39.3-21.5,53.6c-25,14.3-46.5,73.9-46.5,106.1
			c0,32.2-3.6,107.3-3.6,107.3s-11.9,6-10.7,34.6l-2.1,6.6c0.5,7.5,1.6,20.9,3.2,26.7c2.4,8.3-8.3,19.1-8.3,28.6s6,31-4.8,48.9
			c-10.7,17.9-21.5,27.4-20.3,36.9s6,6,6,6s0,7.2,13.1,6c0,0,3.6,2.4,9.5,2.4c6,0,14.3-4.8,14.3-4.8s3.6,4.8,9.5,0
			c6-4.8,14.3-11.9,23.8-13.1c9.5-1.2,6-34.6,9.5-40.5c3.6-6,2.4-20.3,9.5-28.6s-9.5-19.1-4.8-44.1c4.8-25,14.3-41.7,28.6-46.5
			s64.4-33.4,71.5-38.1c7.2-4.8,51.2-35.8,57.2-44.1S952.4,589.6,904.7,497.9z"/>
		<path class="st8" d="M648.4,698.2c0,0,5.7-20.6,4.9-52.6c-0.8-32.2,21.5-91.8,46.5-106.1s23.8-32.2,21.5-53.6
			c-2.4-21.5-62,16.7-73.9-3.6s22.6-45.3,6-51.2c-16.7-6-63.2,13.1-83.4-4.8c-20.3-17.9,0-34.6,3.6-56c3.6-21.5,33.4-25,38.1-64.4
			c4.8-39.3-19.1-27.4-42.9-59.6s-78.7,22.6-97.7,36.9c-11.4,8.5-55,27.3-88.4,41c7.6,12.2,22.9,22.7,49.6,20.4
			c0,0,20.3,6,15.5,27.4c-4.8,21.5-4.8,36.9-2.4,46.5c2.4,9.5,3.6,41.7,0,58.4c-3.5,16.4,7.9,72.9,8.3,93c3.3-4.6,7.3-9.7,12.5-15
			c27.4-27.4,16.1-0.5,38.1,17.9c23.2,19.4,29.8,33.4,32.2,60.6c1.3,14.6-18.2,70.1-22.6,95c-0.8,4.3,62.6-23.8,82.4-29.3
			C606.7,696.3,647.1,698.1,648.4,698.2z"/>
	</g>
	<path d="M392.3,295.3c0,0-9.5,1.2-10.7,8.3c-1.2,7.2-4.8,7.2-2.4,13.1c2.4,6,7.1,10.7,14.3,10.7c7.1,0,8.3,4.8,15.5,2.4
		c7.1-2.4,39.3-19.1,16.7-28.6C416.1,295.3,392.3,295.3,392.3,295.3z"/>
	<path d="M424.9,215.6c2.2,0.9,12.7,5.2,12.7,10.6c0,0-1.2,8.3-10.7,10.7c-6,2.4-6-1.2-6-1.2s2-16.7,3.2-19.8
		C424.2,215.6,424.6,215.5,424.9,215.6z"/>
	<path class="st9" d="M604.1,174.5c-0.5-0.4-0.6-1.1-0.2-1.7c3.2-4.5,18-23.8,32.7-21.7c16.7,2.4,23.8,8.3,28.6,20.3
		c4.6,11.6,8.1,36.7,0.7,55.6c-0.3,0.8-1.4,1-2,0.5L604.1,174.5z"/>
	<path d="M658,931.6c0,0-3.6,7.2-1.2,10.7c0,0,6,0,9.5-4.8C666.4,937.6,664,929.3,658,931.6z"/>
	<path d="M608,928.1c0,0-3.6,7.2-1.2,10.7c0,0,6,0,9.5-4.8C616.3,934,613.9,925.7,608,928.1z"/>
	<path d="M615.1,934c0,0-3.6,7.1-1.2,10.7c0,0,6,0,9.5-4.8C623.5,940,621.1,931.6,615.1,934z"/>
	<path d="M631.8,938.8c0,0-3.6,4.8-3.6,9.5c0,0,7.1,1.2,9.5,0C637.8,948.3,637.8,940,631.8,938.8z"/>
	<path d="M395.9,839.9c0,0-8.3,4.8-9.5,9.5c0,0,7.2,2.4,10.7,1.2C400.6,849.4,397.1,839.9,395.9,839.9z"/>
	<path d="M360.1,833.9c0,0-8.3,2.4-9.5,7.2c0,0,3.6,1.2,8.3,0C358.9,841.1,363.7,836.3,360.1,833.9z"/>
	<path class="st9" d="M819.5,365.4c-6.8,10-40.3,58.2-70.6,73.3c-0.4,0.2-0.1,0.7,0.3,0.6c15.9-5.7,56.3-24.7,71-73.6
		C820.2,365.3,819.7,365.1,819.5,365.4z"/>
	<path class="st9" d="M846.9,388.4c0-0.1-0.2-0.2-0.2,0c-2.8,6.5-25.5,59.7-36.7,70.8c-9.7,9.7-5.2,27.3-3.2,33.5
		c0.2,0.6,1,0.5,1.1-0.1c0.8-6,3-21.7,6.9-27.4C819.5,458,845.2,411.3,846.9,388.4z"/>
	<g>
		<path class="st9" d="M481.5,357.9c13.1-3.6,17.9-17.9,22.6-22.6c4.8-4.8,15.5-1.2,28.6-10.7c13.1-9.5-7.2-19.1-11.9-21.5
			c-4.7-2.4-15.5,6-21.5,14.3s-35.8,32.2-57.2,22.6c-17.5-7.8-38.2-2.9-45.2-0.8c8.5,5.1,20.2,8.1,35.7,6.7c0,0,11.1,3.3,14.9,13.7
			c1,0.2,2,0.4,2.9,0.6C474.3,365.1,468.4,361.5,481.5,357.9z"/>
		<path class="st9" d="M910.2,510.4c-1.5-3.7-3.2-7.5-5.1-11.2c-5.8-11.2-10.6-21.3-14.6-30.4c-9.2,18.3-21.1,45.3-24.6,68.1
			c-0.3,2,2.1,3.4,3.7,2.1C876.5,533.3,891.3,521.7,910.2,510.4z"/>
		<path class="st9" d="M830.2,630.6c1-1.9-0.9-3.9-2.8-3.1c-11.6,5.3-37.8,15.8-43.3,5.7c-5.5-10-3.2-45.6-2.6-54.9
			c0-0.1-0.2-0.1-0.2,0c-1.6,9.1-8.9,43.6-27.6,59.1c-2.6,2.2-4.1,5.5-4,8.9c0.3,20.9,0,92.1-19.2,120.4c-1.6,2.3-2.9,4.5-4.1,6.5
			c14.4-4.8,64.3-33.4,71.4-38.1c2.7-1.8,10.7-7.3,19.8-14L781,671c-1.9-2.6-0.6-6.3,2.6-7.1C795.1,660.9,818.3,652.3,830.2,630.6z"
			/>
	</g>
	<path class="st10" d="M336.3,810.1"/>
	<path d="M369.7,724.3c0,0-8.3,4.8-8.3,7.2s9.5-1.2,9.5-1.2S372,726.7,369.7,724.3z"/>
	<path d="M342.2,723.1c0,0-9.5,2.4-9.5,6s9.5,1.2,9.5,1.2S344.6,723.1,342.2,723.1z"/>
	<path d="M339.9,789.8c0,0-7.2,3.6-8.3,7.1c-1.2,3.6,8.3,0,8.3,0S342.2,791,339.9,789.8z"/>
	<g>
		<path class="st9" d="M465.6,761.8c16.7-22.6-11.9-143.5-12.8-130.5c4.5,22-0.7,67.7,1.5,83.4c2.4,16.7-11.9,48.9-16.7,53.6
			c-4.8,4.8-14.3,8.3-20.3,19.1c-6,10.7-13.1,13.1-22.6,16.7c-9.5,3.6-14.3,11.9-25,15.5c-7.4,2.5-16.9,9.4-22.2,13.5
			c0.1,0.3,0.2,0.5,0.3,0.8c16.9-8.5,41.7-9.7,55.9-18.4C419.1,805.9,448.9,784.5,465.6,761.8z"/>
	</g>
	<path d="M430.5,346.2c7.4-0.5,14.8-1.1,22.2-1.8c3.7-0.4,7.4-0.8,11-1.3c0.9-0.1,1.8-0.3,2.7-0.4c0.9-0.1,1.8-0.3,2.7-0.5
		c0.9-0.2,1.8-0.4,2.7-0.6c0.8-0.3,1.7-0.6,2.5-1c3.3-1.6,6.4-3.6,9.5-5.6l9.3-6.1c3.1-2,6.2-4,9.5-5.8c1.7-0.9,3.3-1.8,5.2-2.2
		c0.5-0.1,1,0,1.5,0l1.4,0.1l2.8,0.2c0.2,0,0.3,0.2,0.3,0.4c0,0.2-0.2,0.3-0.4,0.3l-2.8-0.2l-1.4-0.1c-0.5,0-0.9-0.1-1.3,0
		c-1.7,0.3-3.4,1.3-5,2.1c-3.2,1.8-6.3,3.8-9.4,5.9l-9.3,6.1c-3.1,2-6.2,4-9.6,5.7c-0.8,0.4-1.7,0.8-2.6,1.1
		c-0.9,0.3-1.8,0.5-2.7,0.7c-0.9,0.2-1.8,0.4-2.8,0.5c-0.9,0.2-1.8,0.3-2.8,0.4c-3.7,0.6-7.4,1-11.1,1.4c-7.4,0.8-14.8,1.4-22.2,2
		c-0.4,0-0.8-0.3-0.8-0.7C429.8,346.6,430.1,346.2,430.5,346.2L430.5,346.2z"/>
	<g>
		<path class="st11" d="M544.8,359.9c0-0.2,0.1-0.4,0.1-0.6l0.1-0.2c0.7-2.1,0.6-3.5-1.2-5.2c-1.8-1.7-4.4-3.4-6.5-5.7
			c-2.1-2.3-3.7-5.1-4.4-8c-0.7-2.9-1-6-0.2-9.1c0.4-1.6,1.2-3,2.1-4.4c0.9-1.3,2-2.5,3-3.5c2.1-2.1,3.9-3.9,4.9-5.9
			c0.2-0.5,0.4-1,0.6-1.5c0.1-0.5,0.3-1,0.3-1.5l0.1-1.6l-0.1-1.7c-0.3-2.4-0.8-4.9-1.9-7c-1-2.1-2.5-4-4.5-6.1
			c-1.9-2.1-4.1-4.9-5-8.1c-0.2-0.8-0.5-1.6-0.6-2.4l-0.2-1.2c0-0.4,0-0.8-0.1-1.3c-0.1-1.6,0.2-3.6,1.2-5.4c1-1.9,2.6-3.1,4-4
			c1.4-0.9,2.8-1.5,3.8-2.2c2.2-1.3,3.1-2.4,3.4-4.4s-0.4-4.3-1.4-6.5c-2.2-4.4-6.2-8.4-10.3-11.8l-0.1-0.1c-0.9-0.7-1-1.9-0.4-2.8
			l0,0c-0.9-0.6-2.2-0.5-3,0.3c-0.8,0.9-0.7,2.2,0.2,3l0.1,0.1c4.1,3.3,8,7.4,10.3,11.8c1.1,2.2,1.7,4.5,1.4,6.5
			c-0.2,2.1-1.1,3.2-3.4,4.4c-1.1,0.6-2.4,1.2-3.8,2.2c-1.4,0.9-3,2.2-4,4c-0.9,1.8-1.3,3.8-1.2,5.4c0,0.4,0,0.9,0.1,1.3l0.2,1.2
			c0.1,0.8,0.3,1.6,0.6,2.4c0.9,3.2,3.1,6,5,8.1c1.9,2.1,3.5,3.9,4.5,6.1c1,2.1,1.6,4.5,1.9,7l0.1,1.7l-0.1,1.6
			c-0.1,0.5-0.2,1-0.3,1.5c-0.2,0.5-0.4,1-0.6,1.5c-1,1.9-2.9,3.8-4.9,5.9c-1,1-2.1,2.2-3,3.5c-0.9,1.4-1.7,2.8-2.1,4.4
			c-0.8,3.2-0.5,6.3,0.2,9.1c0.8,2.9,2.3,5.8,4.4,8c2.1,2.3,4.7,3.9,6.5,5.7c1.8,1.8,2,3.2,1.2,5.2l-0.1,0.2
			c-0.1,0.2-0.1,0.4-0.1,0.6c-0.1,1.5,1,2.8,2.6,2.9c0.9,0.1,1.6-0.2,2.2-0.8C545.4,362.1,544.7,361.1,544.8,359.9z"/>
		<g>
			<path class="st12" d="M548.2,236.7c-0.2,0.1-0.3,0.2-0.5,0.2c0,0.1,0,0.2,0,0.3v0.4c0,0.6-0.3,1.1-0.8,1.4
				c-0.5,0.5-1.1,0.9-1.5,1.5l-1.6,2.3c-0.6,0.9-1.6,1.5-2.7,1.8l-2.5,0.5c-1.5,0.3-2.8,1.1-3.7,2.3l-1.1,1.5c-0.2,0-0.3,0-0.5,0.1
				c-0.5-0.4-1-0.8-1.6-1.1c-0.6,0.8-0.5,1.8,0.1,2.5c-0.4,0.2-0.9,0.3-1.4,0.3l-6.2,0.2c-0.3,0-0.7,0-1-0.1h0.1c1,0.4,2,0.6,3,0.5
				c0,0,3.6-0.1,5.4-0.2c0.6,0,1.3,0.2,1.7,0.6c3.6,3.1,7,6.8,9,10.7c1.1,2.2,1.7,4.5,1.4,6.5c-0.2,2.1-1.1,3.2-3.4,4.4
				c-1.1,0.6-2.4,1.2-3.8,2.2c-1.4,0.9-3,2.2-4,4c-0.9,1.8-1.3,3.8-1.2,5.4c0,0.4,0,0.9,0.1,1.3l0.2,1.2c0.1,0.8,0.3,1.6,0.6,2.4
				c0.9,3.2,3.1,6,5,8.1c1.9,2.1,3.5,3.9,4.5,6.1c1,2.1,1.6,4.5,1.9,7l0.1,1.7l-0.1,1.6c-0.1,0.5-0.2,1-0.3,1.5
				c-0.2,0.5-0.4,1-0.6,1.5c-1,1.9-2.9,3.8-4.9,5.9c-1,1-2.1,2.2-3,3.5c-0.9,1.4-1.7,2.8-2.1,4.4c-0.8,3.2-0.5,6.3,0.2,9.1
				c0.8,2.9,2.3,5.8,4.4,8c2.1,2.3,4.7,3.9,6.5,5.7c1.8,1.8,2,3.2,1.2,5.2l-0.1,0.2c-0.1,0.2-0.1,0.4-0.1,0.6
				c-0.1,1.2,0.6,2.2,1.6,2.6c0.5-0.4,0.8-1,0.9-1.7c0.1-0.9,0.2-1.7,0.2-2.6l-0.1-1.4c-0.1-0.5-0.3-0.9-0.4-1.4
				c-0.7-1.8-2-3.2-3.2-4.2c-2.5-2-4.8-3.3-6.6-5.1c-1.8-1.8-3-3.9-3.7-6.4l-0.4-1.8c-0.1-0.6-0.1-1.2-0.1-1.8
				c-0.1-0.6,0.1-1.2,0.1-1.8c0-0.6,0.3-1.1,0.4-1.7c0.7-2.2,2.5-3.9,4.6-5.6c2.1-1.7,4.7-3.6,6.6-6.4c0.4-0.7,0.9-1.5,1.2-2.3
				s0.6-1.6,0.8-2.5c0.1-0.8,0.2-1.7,0.3-2.5l-0.1-2.4c-0.3-3-1.1-6-2.5-8.9c-0.7-1.4-1.6-2.8-2.5-4c-1-1.2-2-2.4-2.9-3.4
				c-1.9-2.1-3.2-3.8-3.8-5.9c-0.2-0.5-0.3-1.1-0.4-1.6l-0.1-0.9v-0.8c-0.1-1.1,0.2-1.9,0.4-2.6c0.6-1.3,2.7-2.4,5.5-4.1
				c1.3-0.9,2.9-1.9,4-3.5c0.3-0.4,0.5-0.8,0.7-1.2l0.3-0.6l0.2-0.7c0.1-0.4,0.3-0.9,0.4-1.3l0.1-1.3c0.3-3.5-0.8-6.7-2.3-9.4
				c-1.5-2.7-3.5-5-5.6-7.1c-1-1-2.1-2-3.1-2.9c-0.2-0.2-0.2-0.5-0.1-0.7c0.6-0.7,1.7-2.1,1.7-2.1c0.9-1.2,2.2-2,3.7-2.3l2.5-0.5
				c1.1-0.2,2.1-0.8,2.7-1.8l1.6-2.3c0.4-0.6,0.9-1,1.5-1.5c0.5-0.4,0.8-0.9,0.8-1.4v-0.4C549.9,236.9,549,236.3,548.2,236.7z"/>
			<path class="st11" d="M547.7,236.9c-5,2.3-8.7,4.6-16.3,6.4c-7.6,1.8-14.7,2.1-20.9,2.6c-0.8,0.1-1.2,1-0.7,1.6l1.1,1.2
				c0.1,0.1,0.2,0.1,0.2,0.1c0.8,0.5,1.8,0.6,2.8,0.4l1.2-0.3c0.8-0.2,1.6-0.2,2.4-0.1c0.7,0.1,1.4,0.2,2.1,0.5l3.4,1.4
				c0.3,0,0.7,0.1,1,0.1l6.2-0.2c1.4,0,2.6-0.7,3.4-1.7l1.1-1.5c0.9-1.2,2.2-2,3.7-2.3l2.5-0.5c1.1-0.2,2.1-0.8,2.7-1.8l1.6-2.3
				c0.4-0.6,0.9-1,1.5-1.5c0.5-0.4,0.8-0.9,0.8-1.4v-0.4C547.7,237.1,547.7,237,547.7,236.9z"/>
		</g>
	</g>
	<path d="M493,240c-0.5-0.3-0.4-1,0.1-1.2c4.3-1.8,19.1-8,26.2-9c7.5-1.1,28.6,0.8,34.4,2.9c0.6,0.2,0.6,1,0,1.2
		c-1.3,0.6-3.2,1.6-4.7,3.1c-2.4,2.4-9.5,8.3-13.1,9.5c-3.6,1.2-22.6,1.2-28.6,0C502.6,245.5,495.6,241.5,493,240z"/>
	<g>
		<path class="st13" d="M517,237.2c0,0-4.3,0.9-5,2c-0.7,1,4.9,1.6,4.9,1.6L517,237.2z"/>
		<ellipse cx="524.2" cy="238.6" rx="7.7" ry="7.2"/>
	</g>
</g>
</svg>
